<?xml version="1.0" encoding="UTF-8"?>
<svg id="Layer_1" data-name="Layer 1" xmlns="http://www.w3.org/2000/svg" viewBox="0 0 601.21 184.25">
  <g>
    <path d="M84.61,99.67c4.36,0,7.89-3.53,7.89-7.89s-3.53-7.89-7.89-7.89h-12.29c-4.36,0-7.89,3.53-7.89,7.89s3.53,7.89,7.89,7.89h12.29Z"/>
    <path d="M120.69,83.9h-12.29c-4.36,0-7.89,3.53-7.89,7.89s3.53,7.89,7.89,7.89h12.29c4.36,0,7.89-3.53,7.89-7.89s-3.53-7.89-7.89-7.89Z"/>
    <path d="M48.84,84.11c-4.24,0-7.67,3.43-7.67,7.67s3.43,7.67,7.67,7.67,7.67-3.43,7.67-7.67-3.43-7.67-7.67-7.67Z"/>
    <path d="M144.12,84.11c-4.24,0-7.67,3.43-7.67,7.67s3.43,7.67,7.67,7.67,7.67-3.43,7.67-7.67-3.43-7.67-7.67-7.67Z"/>
    <path d="M95.63,11.74C51.24,10.58,14.31,45.62,13.14,90.02c-1.16,44.4,33.88,81.33,78.28,82.49,44.39,1.16,81.33-33.88,82.49-78.28,1.16-44.4-33.88-81.33-78.28-82.49ZM165.61,94.01c-1.04,39.81-34.16,71.24-73.97,70.2-20.3-.53-38.41-9.42-51.15-23.26h13.03c4,0,7.25-3.25,7.25-7.25v-1.27c0-4-3.25-7.25-7.25-7.25h-24.08c-5.4-10.44-8.32-22.35-7.99-34.93,1.04-39.81,34.16-71.24,73.97-70.19,24.16.63,45.22,13.1,57.82,31.69H53.91c-4.36,0-7.89,3.53-7.89,7.89s3.53,7.89,7.89,7.89h107.39c3,8.26,4.55,17.19,4.31,26.51Z"/>
    <path d="M88.59,125.17h-12.29c-4.36,0-7.89,3.53-7.89,7.89s3.53,7.89,7.89,7.89h12.29c4.36,0,7.89-3.53,7.89-7.89s-3.53-7.89-7.89-7.89Z"/>
    <circle cx="112.1" cy="133.06" r="7.67"/>
  </g>
  <g>
    <path d="M482.28,133.52c-3.55,0-6.43,2.88-6.43,6.44s2.88,6.44,6.43,6.44,6.44-2.88,6.44-6.44-2.88-6.44-6.44-6.44Z"/>
    <polygon points="301.07 145.88 306.08 145.88 306.08 135.37 317.12 135.37 317.12 130.77 306.08 130.77 306.08 124.85 319.33 124.85 319.33 120.1 301.07 120.1 301.07 145.88"/>
    <path d="M368.79,135.35c0,4.31-1.88,6.33-5.52,6.33s-5.48-2.02-5.48-6.33v-15.25h-5.25v15.25c0,7.07,4.06,11.05,10.73,11.05s10.74-3.95,10.74-11.05v-15.25h-5.22v15.25Z"/>
    <path d="M395.11,136.93h-.08s-11.19-16.83-11.19-16.83h-4.57v25.78h4.77v-16.98h.14s11.18,16.98,11.18,16.98h4.57v-25.78h-4.82v16.83Z"/>
    <path d="M414.88,120.1h-9.58v25.78h9.73c7.25,0,12.56-4.97,12.56-12.78s-5.38-13-12.71-13ZM415.24,141.13h-4.93v-16.31h4.78c4.13,0,7.29,3.02,7.29,8.29s-3.02,8.03-7.15,8.03Z"/>
    <path d="M452.89,128.68c0-5.19-3.76-8.58-9.61-8.58h-10.92v25.78h5.01v-8.84h6.13l4.68,8.84h5.64l-5.53-9.83c2.87-1.29,4.6-3.87,4.6-7.36ZM443.75,132.59h-6.39v-7.77h6.39c2.58,0,3.94,1.73,3.94,3.87s-1.32,3.9-3.94,3.9Z"/>
    <path d="M472.01,120.1s-6.07,9.87-6.11,9.87h-.04s-6.15-9.87-6.15-9.87h-5.48l9.13,14.36v11.42h5.01v-11.42l9.13-14.36h-5.49Z"/>
    <path d="M335.25,119.58c-7.38,0-13.36,5.98-13.36,13.36s5.98,13.36,13.36,13.36,13.36-5.98,13.36-13.36-5.98-13.36-13.36-13.36ZM335.25,141.35c-4.65,0-8.41-3.76-8.41-8.41s3.76-8.41,8.41-8.41,8.41,3.76,8.41,8.41-3.76,8.41-8.41,8.41Z"/>
    <path d="M207.08,121.21c.5-.41,1.15-.6,1.94-.6.34,0,.68.04,1.03.12s.72.22,1.09.43l.8-3.4c-.51-.27-1.06-.48-1.65-.64-.59-.15-1.24-.22-1.96-.22-1.96,0-3.5.55-4.61,1.66-1.11,1.11-1.67,2.62-1.67,4.55v3.16h-3.88v3.55h3.88v15.77h4.27v-15.77h5.07v-3.55h-5.07v-2.99c0-.98.25-1.67.75-2.07Z"/>
    <path d="M225.61,125.66c-1.2,0-2.31.25-3.36.73s-1.93,1.34-2.65,2.55v-2.67h-4.29v19.32h4.29v-10.5c0-1.59.49-2.84,1.46-3.76.98-.91,2.21-1.37,3.71-1.37.41,0,.81.03,1.21.1.4.07.8.16,1.19.27l.57-4.43c-.33-.08-.67-.14-1.02-.17-.35-.04-.72-.06-1.11-.06Z"/>
    <path d="M244.84,127.08c-1.58-.93-3.38-1.4-5.4-1.4-1.52,0-2.93.27-4.21.82-1.28.55-2.39,1.29-3.33,2.24-.94.95-1.66,2.04-2.18,3.27s-.77,2.54-.77,3.91c0,1.86.45,3.57,1.35,5.12s2.14,2.8,3.72,3.73c1.58.93,3.39,1.4,5.42,1.4,1.52,0,2.92-.27,4.19-.82,1.28-.55,2.38-1.29,3.32-2.24.94-.95,1.66-2.04,2.18-3.28s.77-2.54.77-3.91c0-1.86-.45-3.57-1.35-5.12-.9-1.56-2.14-2.8-3.72-3.73ZM244.81,139.34c-.53.96-1.27,1.71-2.2,2.23s-1.99.79-3.17.79-2.26-.26-3.19-.79c-.93-.53-1.66-1.27-2.2-2.23-.53-.96-.8-2.1-.8-3.42s.26-2.46.79-3.42c.52-.97,1.25-1.71,2.18-2.23s2-.78,3.19-.78,2.26.26,3.19.78,1.66,1.27,2.2,2.23c.54.97.8,2.11.8,3.42s-.27,2.46-.8,3.42Z"/>
    <path d="M282.39,126.73c-1.07-.7-2.49-1.05-4.27-1.05-1.29,0-2.57.26-3.85.79-1.27.53-2.39,1.49-3.36,2.9-.43-1.08-1.17-1.96-2.21-2.65-1.05-.69-2.36-1.03-3.93-1.03-.78,0-1.55.11-2.3.34s-1.47.58-2.15,1.06c-.68.47-1.27,1.09-1.79,1.84v-2.65h-4.29v19.32h4.29v-11.24c0-.91.21-1.72.63-2.44.42-.72,1-1.27,1.74-1.67.73-.4,1.56-.6,2.47-.6,1.42,0,2.49.41,3.22,1.23.73.82,1.09,1.9,1.09,3.24v11.48h4.3v-11.24c0-.91.21-1.72.63-2.44.42-.72,1-1.27,1.73-1.67.73-.4,1.56-.6,2.48-.6,1.41,0,2.48.41,3.21,1.23.73.82,1.1,1.9,1.1,3.24v11.48h4.29v-12.73c0-1.17-.24-2.31-.71-3.41-.47-1.11-1.24-2.01-2.31-2.72Z"/>
  </g>
  <g>
    <path d="M248.95,101.95c2.31,0,4.19-1.88,4.19-4.19v-25.06c0-2.31-1.88-4.19-4.19-4.19h-18.5c-2.31,0-4.19,1.88-4.19,4.19v2.68c0,2.31,1.88,4.19,4.19,4.19h11.63v4.68c-1.96,3.15-8,7.66-17.19,7.66-11.57,0-19.65-7.74-19.65-19.83s7.4-19.74,18.46-19.74c7.51,0,12.18,3.35,14.81,6.66,1.06,1.33,2.79,1.93,4.43,1.47l3.64-1.01c2.83-.78,3.98-4.15,2.26-6.53-4.96-6.83-13.68-11.74-24.63-11.74-17.7,0-30.89,12.51-30.89,30.89s13.95,30.97,30.63,30.97c8.51,0,15.32-3.66,18.46-6.81h.26c0,.3-.02.6-.04,1.4-.06,2.36,1.83,4.3,4.19,4.3h2.13Z"/>
    <path d="M301.61,101.95c3.26,0,5.27-3.57,3.59-6.36l-10.2-16.87c7.66-2.38,12.08-8.17,12.08-16.76,0-12.08-8.59-19.57-23.31-19.57h-16.91c-2.31,0-4.19,1.88-4.19,4.19v51.18c0,2.31,1.88,4.19,4.19,4.19h3.45c2.31,0,4.19-1.88,4.19-4.19v-16.74h8.51l10.79,18.82c.75,1.3,2.13,2.11,3.64,2.11h4.18ZM284.63,71.49h-10.12v-18.29h9.95c6.81,0,10.55,3.23,10.55,9.36s-3.91,8.93-10.38,8.93Z"/>
    <rect x="316.36" y="42.4" width="11.83" height="59.56" rx="4.19" ry="4.19"/>
    <path d="M359.76,42.4h-16.66c-2.31,0-4.19,1.88-4.19,4.19v51.18c0,2.31,1.88,4.19,4.19,4.19h3.45c2.31,0,4.19-1.88,4.19-4.19v-15.63h9.02c14.29,0,22.97-7.57,22.97-19.83s-8.68-19.91-22.97-19.91ZM360.1,71.75h-9.36v-18.55h9.36c7.15,0,10.81,3.32,10.81,9.27s-3.49,9.27-10.81,9.27Z"/>
    <path d="M436.25,49.18v-2.59c0-2.31-1.88-4.19-4.19-4.19h-41.39c-2.31,0-4.19,1.88-4.19,4.19v2.59c0,2.31,1.88,4.19,4.19,4.19h14.78v44.39c0,2.31,1.88,4.19,4.19,4.19h3.45c2.31,0,4.19-1.88,4.19-4.19v-44.39h14.78c2.31,0,4.19-1.88,4.19-4.19Z"/>
    <path d="M465.6,45.03c-.64-1.59-2.18-2.63-3.89-2.63h-7.68c-1.71,0-3.25,1.04-3.89,2.63l-20.47,51.18c-1.1,2.75.93,5.75,3.89,5.75h3.42c1.74,0,3.3-1.08,3.92-2.71l3.48-9.2h26.8l3.48,9.2c.62,1.63,2.18,2.71,3.92,2.71h3.59c2.96,0,4.99-2.99,3.89-5.75l-20.47-51.18ZM448.47,79.32l5.02-13.1c2.04-5.19,4.08-10.38,4.17-10.46h.26c.09.09,2.13,5.36,4.17,10.46l4.94,13.1h-18.55Z"/>
    <path d="M513.72,42.4h-16.65c-2.31,0-4.19,1.88-4.19,4.19v51.18c0,2.31,1.88,4.19,4.19,4.19h3.45c2.31,0,4.19-1.88,4.19-4.19v-15.63h9.02c14.3,0,22.97-7.57,22.97-19.83s-8.68-19.91-22.97-19.91ZM514.06,71.75h-9.36v-18.55h9.36c7.15,0,10.81,3.32,10.81,9.27s-3.49,9.27-10.81,9.27Z"/>
    <path d="M582.54,90.98h-26.61v-14.04h18.7c2.31,0,4.19-1.88,4.19-4.19v-2.68c0-2.31-1.88-4.19-4.19-4.19h-18.7v-12.51h26.27c2.31,0,4.19-1.88,4.19-4.19v-2.59c0-2.31-1.88-4.19-4.19-4.19h-33.91c-2.31,0-4.19,1.88-4.19,4.19v51.18c0,2.31,1.88,4.19,4.19,4.19h34.25c2.31,0,4.19-1.88,4.19-4.19v-2.59c0-2.31-1.88-4.19-4.19-4.19Z"/>
  </g>
</svg>