<?xml version="1.0" encoding="UTF-8"?>
<svg id="Layer_2" data-name="Layer 2" xmlns="http://www.w3.org/2000/svg" viewBox="0 0 160.59 160.59">
  <defs>
    <style>
      .cls-1 {
        fill: #fff;
      }
    </style>
  </defs>
  <g id="Layer_1-2" data-name="Layer 1">
    <g>
      <path class="cls-1" d="M71.39,87.83c4.35,0,7.88-3.53,7.88-7.88s-3.53-7.88-7.88-7.88h-12.27c-4.35,0-7.88,3.53-7.88,7.88s3.53,7.88,7.88,7.88h12.27Z"/>
      <path class="cls-1" d="M107.42,72.08h-12.27c-4.35,0-7.88,3.53-7.88,7.88s3.53,7.88,7.88,7.88h12.27c4.35,0,7.88-3.53,7.88-7.88s-3.53-7.88-7.88-7.88Z"/>
      <circle class="cls-1" cx="35.68" cy="79.95" r="7.66"/>
      <circle class="cls-1" cx="130.81" cy="79.96" r="7.66"/>
      <path class="cls-1" d="M82.4.03C38.07-1.13,1.19,33.86.03,78.19c-1.16,44.33,33.83,81.21,78.16,82.37,44.33,1.16,81.2-33.83,82.37-78.16C161.72,38.07,126.73,1.19,82.4.03ZM152.27,82.18c-1.04,39.76-34.11,71.13-73.86,70.09-20.27-.53-38.35-9.4-51.08-23.23h13.01c4,0,7.24-3.24,7.24-7.24v-1.27c0-4-3.24-7.24-7.24-7.24h-24.05c-5.39-10.43-8.3-22.32-7.97-34.88C9.36,38.66,42.43,7.28,82.18,8.32c24.13.63,45.16,13.08,57.74,31.64H40.74c-4.35,0-7.88,3.53-7.88,7.88s3.53,7.88,7.88,7.88h107.23c3,8.24,4.55,17.17,4.3,26.47h0Z"/>
      <path class="cls-1" d="M75.37,113.29h-12.27c-4.35,0-7.88,3.53-7.88,7.88s3.53,7.88,7.88,7.88h12.27c4.35,0,7.88-3.53,7.88-7.88s-3.53-7.88-7.88-7.88Z"/>
      <circle class="cls-1" cx="98.84" cy="121.17" r="7.66"/>
    </g>
  </g>
</svg>