<?xml version="1.0" encoding="UTF-8"?>
<svg id="Layer_1" data-name="Layer 1" xmlns="http://www.w3.org/2000/svg" viewBox="0 0 745.74 184.25">
  <g>
    <path d="M266.48,134.37c-3.19,0-5.75-2.63-5.67-5.81.03-1.08.06-1.49.06-1.9h-.35c-4.26,4.26-13.47,9.21-24.98,9.21-22.56,0-41.44-16.69-41.44-41.9s17.84-41.78,41.78-41.78c14.81,0,26.61,6.64,33.31,15.88,2.33,3.21.77,7.77-3.06,8.83l-4.92,1.37c-2.22.62-4.56-.19-5.99-1.99-3.56-4.47-9.87-9-20.03-9-14.96,0-24.98,10.59-24.98,26.7s10.93,26.82,26.59,26.82c12.43,0,20.6-6.1,23.25-10.36v-6.33h-15.74c-3.13,0-5.67-2.54-5.67-5.67v-3.62c0-3.13,2.54-5.67,5.67-5.67h25.03c3.13,0,5.67,2.54,5.67,5.67v33.9c0,3.13-2.54,5.67-5.67,5.67h-2.88Z"/>
    <path d="M315.43,106.05h-11.51v22.64c0,3.13-2.54,5.67-5.67,5.67h-4.66c-3.13,0-5.67-2.54-5.67-5.67V59.47c0-3.13,2.54-5.67,5.67-5.67h22.87c19.91,0,31.54,10.13,31.54,26.47,0,11.62-5.99,19.45-16.34,22.67l13.79,22.82c2.28,3.78-.44,8.6-4.85,8.6h-5.66c-2.03,0-3.91-1.09-4.92-2.85l-14.6-25.46ZM317.62,93.16c8.75,0,14.04-3.68,14.04-12.09s-5.06-12.66-14.27-12.66h-13.47v24.75h13.7Z"/>
    <path d="M366.22,53.8h4.66c3.13,0,5.67,2.54,5.67,5.67v69.23c0,3.13-2.54,5.67-5.67,5.67h-4.66c-3.13,0-5.67-2.54-5.67-5.67V59.47c0-3.13,2.54-5.67,5.67-5.67Z"/>
    <path d="M419.26,53.8c19.34,0,31.08,9.78,31.08,26.93s-11.74,26.82-31.08,26.82h-12.2v21.15c0,3.13-2.54,5.67-5.67,5.67h-4.66c-3.13,0-5.67-2.54-5.67-5.67V59.47c0-3.13,2.54-5.67,5.67-5.67h22.53ZM419.72,93.51c9.9,0,14.62-4.72,14.62-12.55s-4.95-12.55-14.62-12.55h-12.66v25.09h12.66Z"/>
    <path d="M497.07,68.65v60.05c0,3.13-2.54,5.67-5.67,5.67h-4.66c-3.13,0-5.67-2.54-5.67-5.67v-60.05h-20c-3.13,0-5.67-2.54-5.67-5.67v-3.51c0-3.13,2.54-5.67,5.67-5.67h55.99c3.13,0,5.67,2.54,5.67,5.67v3.51c0,3.13-2.54,5.67-5.67,5.67h-20Z"/>
    <path d="M533.73,118.25l-4.71,12.45c-.83,2.2-2.95,3.66-5.3,3.66h-4.63c-4.01,0-6.75-4.05-5.26-7.77l27.69-69.23c.86-2.15,2.95-3.56,5.26-3.56h10.39c2.32,0,4.4,1.41,5.26,3.56l27.69,69.23c1.49,3.72-1.25,7.77-5.26,7.77h-4.86c-2.36,0-4.47-1.46-5.3-3.66l-4.71-12.45h-36.26ZM557.67,86.02c-2.76-6.91-5.52-14.04-5.64-14.16h-.35c-.11.12-2.88,7.14-5.64,14.16l-6.79,17.73h25.09l-6.68-17.73Z"/>
    <path d="M627.53,53.8c19.34,0,31.08,9.78,31.08,26.93s-11.74,26.82-31.08,26.82h-12.2v21.15c0,3.13-2.54,5.67-5.67,5.67h-4.66c-3.13,0-5.67-2.54-5.67-5.67V59.47c0-3.13,2.54-5.67,5.67-5.67h22.53ZM627.99,93.51c9.9,0,14.62-4.72,14.62-12.55s-4.95-12.55-14.62-12.55h-12.66v25.09h12.66Z"/>
    <path d="M674.29,53.8h45.87c3.13,0,5.67,2.54,5.67,5.67v3.51c0,3.13-2.54,5.67-5.67,5.67h-35.54v16.92h25.29c3.13,0,5.67,2.54,5.67,5.67v3.62c0,3.13-2.54,5.67-5.67,5.67h-25.29v18.99h36c3.13,0,5.67,2.54,5.67,5.67v3.51c0,3.13-2.54,5.67-5.67,5.67h-46.33c-3.13,0-5.67-2.54-5.67-5.67V59.47c0-3.13,2.54-5.67,5.67-5.67Z"/>
  </g>
  <g>
    <path d="M85.56,99.66c4.35,0,7.88-3.53,7.88-7.88s-3.53-7.88-7.88-7.88h-12.27c-4.35,0-7.88,3.53-7.88,7.88s3.53,7.88,7.88,7.88h12.27Z"/>
    <path d="M121.59,83.91h-12.27c-4.35,0-7.88,3.53-7.88,7.88s3.53,7.88,7.88,7.88h12.27c4.35,0,7.88-3.53,7.88-7.88s-3.53-7.88-7.88-7.88Z"/>
    <circle cx="49.85" cy="91.79" r="7.66" transform="translate(-14.06 9.17) rotate(-9.22)"/>
    <circle cx="144.98" cy="91.79" r="7.66" transform="translate(4.7 190.61) rotate(-67.5)"/>
    <path d="M96.57,11.86C52.24,10.7,15.36,45.69,14.2,90.02c-1.16,44.33,33.83,81.21,78.16,82.37,44.33,1.16,81.2-33.83,82.37-78.16,1.16-44.33-33.83-81.21-78.16-82.37ZM166.44,94.01c-1.04,39.76-34.11,71.13-73.86,70.09-20.27-.53-38.35-9.4-51.08-23.23h13.01c4,0,7.24-3.24,7.24-7.24v-1.27c0-4-3.24-7.24-7.24-7.24h-24.05c-5.39-10.43-8.3-22.32-7.97-34.88,1.04-39.75,34.11-71.13,73.86-70.09,24.13.63,45.16,13.08,57.74,31.64H54.91c-4.35,0-7.88,3.53-7.88,7.88s3.53,7.88,7.88,7.88h107.23c3,8.24,4.55,17.17,4.3,26.47Z"/>
    <path d="M89.54,125.12h-12.27c-4.35,0-7.88,3.53-7.88,7.88s3.53,7.88,7.88,7.88h12.27c4.35,0,7.88-3.53,7.88-7.88s-3.53-7.88-7.88-7.88Z"/>
    <circle cx="113.01" cy="133" r="7.66"/>
  </g>
</svg>