<svg width="128" height="128" viewBox="0 0 128 128" fill="none" xmlns="http://www.w3.org/2000/svg">
<rect x="4" y="4" width="120" height="120" rx="8" stroke="#F1F1F1" stroke-width="8"/>
<path d="M8 96H36C38.2091 96 40 97.7909 40 100V100C40 102.209 38.2091 104 36 104H8V96Z" fill="#F1F1F1"/>
<path d="M46 100C46 97.7909 47.7909 96 50 96H64C66.2091 96 68 97.7909 68 100V100C68 102.209 66.2091 104 64 104H50C47.7909 104 46 102.209 46 100V100Z" fill="#F1F1F1"/>
<path d="M74 100C74 97.7909 75.7909 96 78 96V96C80.2091 96 82 97.7909 82 100V100C82 102.209 80.2091 104 78 104V104C75.7909 104 74 102.209 74 100V100Z" fill="#F1F1F1"/>
<path d="M26 52C26 49.7909 27.7909 48 30 48V48C32.2091 48 34 49.7909 34 52V52C34 54.2091 32.2091 56 30 56V56C27.7909 56 26 54.2091 26 52V52Z" fill="#F1F1F1"/>
<path d="M40 52C40 49.7909 41.7909 48 44 48H66C68.2091 48 70 49.7909 70 52V52C70 54.2091 68.2091 56 66 56H44C41.7909 56 40 54.2091 40 52V52Z" fill="#F1F1F1"/>
<path d="M76 52C76 49.7909 77.7909 48 80 48H94C96.2091 48 98 49.7909 98 52V52C98 54.2091 96.2091 56 94 56H80C77.7909 56 76 54.2091 76 52V52Z" fill="#F1F1F1"/>
<path d="M104 52C104 49.7909 105.791 48 108 48V48C110.209 48 112 49.7909 112 52V52C112 54.2091 110.209 56 108 56V56C105.791 56 104 54.2091 104 52V52Z" fill="#F1F1F1"/>
<path d="M68 28C68 25.7909 69.7909 24 72 24H120V32H72C69.7909 32 68 30.2091 68 28V28Z" fill="#F1F1F1"/>
</svg>
